<svg width="30" height="30" viewBox="0 0 30 30" fill="none" xmlns="http://www.w3.org/2000/svg">
<g clip-path="url(#clip0)">
<path d="M23.7091 18.5843C23.0949 17.9448 22.3541 17.6028 21.569 17.6028C20.7902 17.6028 20.0431 17.9384 19.4036 18.5779L17.4027 20.5724C17.2381 20.4838 17.0735 20.4015 16.9152 20.3192C16.6873 20.2052 16.472 20.0975 16.2884 19.9836C14.4142 18.7932 12.7109 17.2419 11.0774 15.2348C10.2859 14.2344 9.75404 13.3923 9.36781 12.5375C9.88701 12.0626 10.3682 11.5687 10.8368 11.0939C11.0141 10.9166 11.1913 10.7329 11.3686 10.5557C12.6983 9.226 12.6983 7.50378 11.3686 6.17412L9.64007 4.44557C9.44379 4.24928 9.24117 4.04667 9.05122 3.84405C8.67132 3.45149 8.27242 3.04626 7.86086 2.66636C7.24669 2.05851 6.51221 1.7356 5.73974 1.7356C4.96727 1.7356 4.22013 2.05851 3.58696 2.66636C3.58063 2.67269 3.58063 2.67269 3.5743 2.67902L1.42152 4.8508C0.61106 5.66125 0.148846 6.649 0.0475384 7.79504C-0.104423 9.6439 0.440104 11.3661 0.857997 12.4932C1.88373 15.2601 3.41601 17.8245 5.70175 20.5724C8.47504 23.8839 11.8118 26.4989 15.6235 28.3414C17.0798 29.0316 19.0237 29.8484 21.1954 29.9877C21.3284 29.994 21.4677 30.0003 21.5943 30.0003C23.057 30.0003 24.2853 29.4748 25.2477 28.4301C25.2541 28.4174 25.2667 28.4111 25.2731 28.3984C25.6023 27.9995 25.9822 27.6386 26.3811 27.2524C26.6534 26.9928 26.932 26.7205 27.2042 26.4356C27.8311 25.7834 28.1603 25.0236 28.1603 24.2448C28.1603 23.4597 27.8247 22.7062 27.1852 22.073L23.7091 18.5843ZM25.9759 25.2515C25.9695 25.2515 25.9695 25.2579 25.9759 25.2515C25.7289 25.5175 25.4757 25.7581 25.2034 26.024C24.7918 26.4166 24.374 26.8281 23.9814 27.2904C23.3419 27.9742 22.5884 28.2971 21.6007 28.2971C21.5057 28.2971 21.4044 28.2971 21.3094 28.2908C19.4289 28.1705 17.6813 27.436 16.3707 26.8091C12.7869 25.0743 9.64007 22.6112 7.02508 19.4897C4.86597 16.8874 3.42234 14.4813 2.46625 11.898C1.8774 10.3214 1.66212 9.09304 1.7571 7.93434C1.82042 7.19353 2.10534 6.57935 2.63087 6.05382L4.78999 3.89471C5.10024 3.60345 5.42949 3.44516 5.75241 3.44516C6.1513 3.44516 6.47422 3.68576 6.67683 3.88838C6.68317 3.89471 6.6895 3.90104 6.69583 3.90737C7.08206 4.26828 7.4493 4.64185 7.83554 5.04075C8.03182 5.24336 8.23443 5.44598 8.43705 5.65492L10.1656 7.38348C10.8368 8.05464 10.8368 8.67515 10.1656 9.34631C9.98198 9.52993 9.8047 9.71354 9.62108 9.89083C9.08921 10.4354 8.58268 10.9419 8.03182 11.4358C8.01916 11.4484 8.00649 11.4548 8.00016 11.4674C7.45563 12.012 7.55694 12.5438 7.67091 12.9047C7.67724 12.9237 7.68358 12.9427 7.68991 12.9617C8.13946 14.0508 8.77263 15.0765 9.73505 16.2985L9.74138 16.3048C11.4889 18.4576 13.3315 20.1355 15.3639 21.4209C15.6235 21.5855 15.8895 21.7185 16.1427 21.8451C16.3707 21.9591 16.586 22.0667 16.7696 22.1807C16.7949 22.1933 16.8202 22.2123 16.8456 22.225C17.0608 22.3326 17.2634 22.3833 17.4724 22.3833C17.9979 22.3833 18.3272 22.054 18.4348 21.9464L20.6003 19.781C20.8155 19.5657 21.1574 19.3061 21.5563 19.3061C21.9489 19.3061 22.2718 19.553 22.4681 19.7683C22.4744 19.7746 22.4744 19.7746 22.4808 19.781L25.9695 23.2697C26.6217 23.9156 26.6217 24.5804 25.9759 25.2515Z" fill="#E2AB3F"/>
<path d="M16.2124 7.13623C17.8713 7.41482 19.3782 8.19996 20.5813 9.40298C21.7843 10.606 22.5631 12.1129 22.848 13.7719C22.9176 14.1897 23.2786 14.481 23.6901 14.481C23.7408 14.481 23.7851 14.4747 23.8357 14.4683C24.3043 14.3924 24.6145 13.9491 24.5386 13.4806C24.1966 11.4734 23.2469 9.64358 21.7969 8.19362C20.347 6.74366 18.5171 5.79391 16.51 5.452C16.0414 5.37602 15.6045 5.68627 15.5222 6.14848C15.4399 6.6107 15.7438 7.06025 16.2124 7.13623Z" fill="#E2AB3F"/>
<path d="M29.9654 13.2339C29.4019 9.92873 27.8443 6.92117 25.4509 4.52778C23.0575 2.1344 20.05 0.576797 16.7448 0.0132757C16.2826 -0.0690364 15.8457 0.247549 15.7634 0.709763C15.6874 1.17831 15.9977 1.6152 16.4662 1.69751C19.4168 2.19771 22.1078 3.59702 24.2479 5.73081C26.388 7.87092 27.781 10.5619 28.2812 13.5125C28.3508 13.9304 28.7117 14.2216 29.1233 14.2216C29.1739 14.2216 29.2183 14.2153 29.2689 14.209C29.7311 14.1393 30.0477 13.6961 29.9654 13.2339Z" fill="#E2AB3F"/>
</g>
<defs>
<clipPath id="clip0">
<rect width="30" height="30" fill="white"/>
</clipPath>
</defs>
</svg>
